<?xml version="1.0" encoding="UTF-8" standalone="no"?>
<!-- Created with Inkscape (http://www.inkscape.org/) -->
<svg
   xmlns:dc="http://purl.org/dc/elements/1.1/"
   xmlns:cc="http://creativecommons.org/ns#"
   xmlns:rdf="http://www.w3.org/1999/02/22-rdf-syntax-ns#"
   xmlns:svg="http://www.w3.org/2000/svg"
   xmlns="http://www.w3.org/2000/svg"
   xmlns:sodipodi="http://sodipodi.sourceforge.net/DTD/sodipodi-0.dtd"
   xmlns:inkscape="http://www.inkscape.org/namespaces/inkscape"
   width="600"
   height="600"
   id="svg2"
   sodipodi:version="0.32"
   inkscape:version="0.46"
   version="1.0"
   sodipodi:docname="girafes2.svg"
   inkscape:output_extension="org.inkscape.output.svg.inkscape">
  <sodipodi:namedview
     id="base"
     pagecolor="#ffffff"
     bordercolor="#666666"
     borderopacity="1.0"
     inkscape:pageopacity="0.0"
     inkscape:pageshadow="2"
     inkscape:zoom="0.98994949"
     inkscape:cx="285.50988"
     inkscape:cy="309.33701"
     inkscape:document-units="px"
     inkscape:current-layer="layer1"
     showgrid="false"
     inkscape:window-width="1440"
     inkscape:window-height="844"
     inkscape:window-x="-4"
     inkscape:window-y="-4"
     showguides="true"
     inkscape:guide-bbox="true" />
  <defs
     id="defs4">
    <inkscape:perspective
       id="perspective2477"
       inkscape:persp3d-origin="300 : 200 : 1"
       inkscape:vp_z="600 : 300 : 1"
       inkscape:vp_y="0 : 1000 : 0"
       inkscape:vp_x="0 : 300 : 1"
       sodipodi:type="inkscape:persp3d" />
  </defs>
  <metadata
     id="metadata7">
    <rdf:RDF>
      <cc:Work
         rdf:about="">
        <dc:format>image/svg+xml</dc:format>
        <dc:type
           rdf:resource="http://purl.org/dc/dcmitype/StillImage" />
      </cc:Work>
    </rdf:RDF>
  </metadata>
  <g
     id="layer1"
     inkscape:groupmode="layer"
     inkscape:label="Calque 1">
    <path
       style="fill:#ffffff;fill-opacity:1;fill-rule:evenodd;stroke:#000000;stroke-width:1px;stroke-linecap:butt;stroke-linejoin:miter;stroke-opacity:1"
       d="M 20.985834,305.75299 C 16.052262,308.40355 9.252619,315.33963 3.8288185,310.35774 C 2.6735677,307.0829 0.52689613,302.1268 -3.4520302,305.45923 C -10.800678,306.57317 -16.413185,297.45711 -13.758581,291.07787 C -13.147694,288.87797 -6.8051539,287.41524 -10.439272,290.23277 C -17.202577,291.85843 -24.576333,286.28801 -25.131094,279.41297 C -23.443239,276.25555 -23.114175,272.637 -27.393343,272.62794 C -32.607116,267.82853 -30.354379,259.68776 -27.444051,254.22513 C -26.639139,250.75298 -20.426938,246.27329 -18.993717,249.56115 C -23.050679,244.80947 -22.347499,237.73259 -20.81566,232.0949 C -18.41631,224.25396 -11.499338,217.02937 -2.9642733,216.78387 C 2.3139553,215.19968 3.5902961,208.21816 9.1167251,207.02689 C 14.054408,202.86996 20.483605,206.77765 22.908211,211.14869 C 27.471914,212.25793 34.791957,208.64698 36.668722,214.85776 C 37.201639,220.88325 47.679725,221.27695 45.257686,228.36433 C 47.53465,233.27452 55.600929,229.00106 58.338702,234.40976 C 61.359194,239.1674 55.69861,244.78804 58.91376,249.57131 C 63.902538,253.67948 62.272948,262.39097 61.30255,267.43577 C 56.119991,272.35771 57.866565,279.52893 55.466784,285.44998 C 53.346639,292.12602 46.049507,294.69021 44.650665,301.76558 C 43.468614,304.32544 41.057595,306.09592 38.233513,306.24579"
       id="path5548" />
    <path
       style="fill:#ffffff;fill-opacity:1;fill-rule:evenodd;stroke:#000000;stroke-width:1px;stroke-linecap:butt;stroke-linejoin:miter;stroke-opacity:1"
       d="M 43.974179,267.70581 C 38.099607,268.25215 31.436953,263.81383 31.501646,257.51597 C 38.665907,254.42874 28.849142,248.01159 30.98499,242.92932 C 30.91461,238.73934 35.998913,234.57595 37.546246,233.30574 C 30.724833,230.93731 31.735891,221.36926 35.692331,216.80545 C 38.185902,213.04674 42.004516,207.86013 47.176469,209.66436 C 51.533956,211.66363 45.173683,214.03026 45.473101,209.89661 C 44.610695,203.51018 49.361308,198.16528 53.602639,194.05145 C 57.09358,190.69988 64.337302,188.02914 67.162959,190.27219 C 68.471417,183.48197 75.678916,178.26476 82.521949,179.48898 C 87.595986,184.20055 92.435994,178.32726 97.348766,176.65197 C 105.12916,174.79528 104.08916,184.3258 106.95248,187.89449 C 112.27513,188.41363 121.62354,189.2068 119.088,197.06437 C 117.34803,202.03031 116.75838,207.91334 121.41341,211.34789 C 124.06462,216.99071 119.63729,222.36341 117.64189,227.4091 C 116.98937,232.78325 124.82213,239.40443 117.69804,243.32348 C 113.215,245.44636 109.04179,249.43612 111.26368,254.68433 C 109.92212,261.24081 99.614692,258.28234 98.260288,265.31909 C 96.134719,271.4203 89.255147,267.11436 85.589482,270.47564 C 82.980972,275.10727 78.391651,276.24759 73.939537,277.83479 C 70.858575,281.98667 64.934862,283.97612 60.786559,280.17551 L 60.334832,279.73039"
       id="path5550" />
    <path
       sodipodi:nodetypes="ccccccc"
       id="path4685"
       d="M 176.5125,415.82413 C 183.23051,427.65521 186.11426,462.00582 185.2032,475.66478 C 185.58637,496.06207 184.23707,516.63805 182.60433,536.84912 C 186.83654,550.71677 201.26965,540.46278 197.29701,529.24551 C 197.304,512.76856 195.83124,496.30176 196.90617,479.83857 C 196.43264,463.89135 195.24188,427.19213 187.60442,412.85684 C 183.42001,396.84111 177.21837,412.8482 177.30097,420.06231"
       style="fill:#ffffff;fill-opacity:1;fill-rule:evenodd;stroke:#000000;stroke-width:1px;stroke-linecap:butt;stroke-linejoin:miter;stroke-opacity:1" />
    <path
       sodipodi:nodetypes="ccccccccccc"
       id="path4679"
       d="M 285.08648,322.46143 C 289.75647,334.68147 281.34935,353.28248 283.63108,368.38224 C 283.42838,393.07531 279.8945,417.9108 283.87417,442.48671 C 285.16943,461.39782 282.85999,508.69902 285.20724,527.56307 C 285.49735,536.94812 285.96924,546.57889 283.979,555.77976 C 278.3521,565.79207 265.30839,556.57948 268.39963,547.06938 C 268.87665,529.74348 270.99301,512.31825 268.40968,495.04484 C 267.53621,469.81105 268.89449,416.10034 264.88527,391.06905 C 265.24346,373.98127 266.34906,356.86311 264.94884,339.79745 C 264.66798,332.07197 262.62999,315.04141 268.12918,314.08131 C 273.86349,312.5448 280.70964,315.05362 285.08648,322.46143 z"
       style="fill:#ffffff;fill-opacity:1;fill-rule:evenodd;stroke:#000000;stroke-width:1px;stroke-linecap:butt;stroke-linejoin:miter;stroke-opacity:1" />
    <path
       style="fill:#ffffff;fill-opacity:1;fill-rule:evenodd;stroke:#000000;stroke-width:1px;stroke-linecap:butt;stroke-linejoin:miter;stroke-opacity:1"
       d="M 285.84375 337.40625 C 285.43126 337.27029 285.07587 337.02695 284.65625 336.90625 C 282.25563 336.3363 279.86358 335.91073 277.5 335.65625 C 275.13642 335.40177 272.79302 335.32269 270.46875 335.375 C 268.14448 335.42731 265.84521 335.61832 263.5625 335.96875 C 261.27979 336.31918 259.02014 336.82888 256.78125 337.46875 C 254.54236 338.10862 252.31782 338.89187 250.125 339.8125 C 247.93218 340.73313 245.76949 341.77603 243.625 342.96875 C 241.48051 344.16147 239.3439 345.48137 237.25 346.9375 C 235.1561 348.39363 233.10355 349.97664 231.0625 351.6875 C 229.57197 352.7093 228.15587 353.8508 226.78125 355.09375 C 225.40663 356.3367 224.07149 357.69387 222.78125 359.125 C 220.20077 361.98726 217.74466 365.20784 215.3125 368.625 C 212.88034 372.04216 210.47358 375.66668 207.9375 379.375 C 205.40142 383.08332 202.73599 386.85804 199.84375 390.59375 C 198.39763 392.46161 196.89495 394.331 195.3125 396.15625 C 193.73005 397.9815 192.09407 399.78157 190.34375 401.53125 C 188.59343 403.28093 186.73096 404.98386 184.78125 406.625 C 182.83154 408.26614 180.77439 409.84412 178.59375 411.34375 C 176.41311 412.84338 174.09935 414.23735 171.65625 415.5625 C 169.21315 416.88765 166.64333 418.1323 163.90625 419.25 C 161.16917 420.3677 158.28135 421.37272 155.21875 422.25 C 152.15615 423.12728 148.91965 423.86486 145.5 424.46875 C 144.58147 425.40056 143.87897 426.49828 143.21875 427.59375 C 169.14617 441.09911 200.33412 431.433 223.78125 416.9375 C 254.11252 400.96185 280.7361 371.92885 285.84375 337.40625 z "
       id="path4858" />
    <path
       style="fill:#ffffff;fill-opacity:1;fill-rule:evenodd;stroke:#000000;stroke-width:1px;stroke-linecap:butt;stroke-linejoin:miter;stroke-opacity:1"
       d="M 256.5 71.375 C 247.91671 71.654138 239.48046 77.069206 245.59375 87.40625 C 246.51477 92.387041 245.78276 98.242846 249.75 102.125 C 242.30947 147.80566 254.03703 193.85552 249.5 239.6875 C 251.09666 256.75345 246.63632 274.00428 233.96875 286.09375 C 219.2392 302.84253 199.91175 317.31664 182.40625 330.09375 C 172.00642 335.4475 162.48475 340.36446 154.25 345.40625 C 136.74417 353.88906 117.53859 365.11321 106.5625 384.96875 C 97.311186 404.77806 98.996411 427.9273 105.21875 448.375 C 108.25445 460.09345 111.19847 472.96896 106.34375 484.59375 C 104.18137 490.91281 111.22037 491.951 111.78125 485.28125 C 115.30119 474.77863 117.58725 463.02476 113.53125 452.3125 C 106.39222 433.99045 104.00448 412.76085 112.46875 394.4375 C 115.30149 387.8329 119.64517 381.62071 125.15625 376.90625 C 124.52549 379.02649 124.0557 381.23423 123.78125 383.5625 C 113.75485 399.06045 124.47642 421.14854 141.15625 426.5625 C 141.83303 426.95174 142.53439 427.23727 143.21875 427.59375 C 143.87897 426.49828 144.58147 425.40056 145.5 424.46875 C 148.91965 423.86486 152.15615 423.12728 155.21875 422.25 C 158.28135 421.37272 161.16917 420.3677 163.90625 419.25 C 166.64333 418.1323 169.21315 416.88765 171.65625 415.5625 C 174.09935 414.23735 176.41311 412.84338 178.59375 411.34375 C 180.77439 409.84412 182.83154 408.26614 184.78125 406.625 C 186.73096 404.98386 188.59343 403.28093 190.34375 401.53125 C 192.09407 399.78157 193.73005 397.9815 195.3125 396.15625 C 196.89495 394.331 198.39763 392.46161 199.84375 390.59375 C 202.73599 386.85804 205.40142 383.08332 207.9375 379.375 C 210.47358 375.66668 212.88034 372.04216 215.3125 368.625 C 217.74466 365.20784 220.20077 361.98726 222.78125 359.125 C 224.07149 357.69387 225.40663 356.3367 226.78125 355.09375 C 228.15587 353.8508 229.57197 352.7093 231.0625 351.6875 C 233.10355 349.97664 235.1561 348.39363 237.25 346.9375 C 239.3439 345.48137 241.48051 344.16147 243.625 342.96875 C 245.76949 341.77603 247.93218 340.73313 250.125 339.8125 C 252.31782 338.89187 254.54236 338.10862 256.78125 337.46875 C 259.02014 336.82888 261.27979 336.31918 263.5625 335.96875 C 265.84521 335.61832 268.14448 335.42731 270.46875 335.375 C 272.79302 335.32269 275.13642 335.40177 277.5 335.65625 C 279.86358 335.91073 282.25563 336.3363 284.65625 336.90625 C 285.07587 337.02695 285.43126 337.27029 285.84375 337.40625 C 286.5229 332.8159 286.87564 328.14229 286.75 323.375 C 285.86224 287.76496 273.36301 263.54607 271.28125 218.375 C 271.67304 193.2164 267.73859 168.84951 270.40625 142.9375 C 272.12449 124.00771 270.3791 104.98048 268.28125 86.15625 C 273.83126 75.944323 265.08329 71.095862 256.5 71.375 z "
       id="path4667" />
    <path
       id="path4673"
       d="M 254.11463,35.781616 C 248.253,22.623282 228.03285,21.93847 225.16692,35.965227 C 219.63202,47.14889 227.45683,60.913426 240.00699,61.386013 L 241.45996,61.951522 L 242.84213,62.70179"
       style="fill:#ffffff;fill-opacity:1;fill-rule:evenodd;stroke:#000000;stroke-width:1px;stroke-linecap:butt;stroke-linejoin:miter;stroke-opacity:1"
       sodipodi:nodetypes="ccccc" />
    <path
       id="path4669"
       d="M 261.76529,87.046638 C 252.40872,94.872135 242.71306,104.21128 229.92431,105.31452 C 219.95172,106.41452 208.5471,98.868482 208.47445,88.25322 C 209.50923,81.444829 215.98436,77.606453 219.34287,72.037684 C 225.95823,64.057446 234.37094,57.64548 239.89512,48.749163 C 244.38532,42.074993 251.17065,39.005299 254.67445,31.759526 C 257.22573,26.253924 255.25389,13.486978 262.46954,12.03659 C 269.88418,11.69768 271.88758,20.282707 269.17133,25.824046 C 266.11651,31.446389 274.51905,35.979666 276.51429,29.618372 C 276.7558,23.802019 276.68456,16.893202 282.81218,13.817238 C 288.29633,9.2719203 295.76083,15.249032 291.94971,21.512626 C 289.81787,27.665343 286.70557,33.438407 284.74658,39.640856 C 283.06729,46.195616 287.72129,37.531472 290.05762,36.282327 C 293.23658,33.038784 298.25941,32.105395 302.30321,34.285463 C 309.96442,37.12777 316.62619,45.370342 314.17613,53.850415 C 311.97431,61.809042 302.66805,65.156587 295.18924,63.777815 C 290.06198,62.378271 283.98136,62.754511 280.66002,67.44453 C 276.65012,72.473401 274.45383,78.690378 272.29309,84.666206 C 270.40451,90.709134 271.30908,97.169988 269.55139,103.21084"
       style="fill:#ffffff;fill-opacity:1;fill-rule:evenodd;stroke:#000000;stroke-width:1px;stroke-linecap:butt;stroke-linejoin:miter;stroke-opacity:1"
       sodipodi:nodetypes="ccccccccccccccccccc" />
    <path
       id="path4671"
       d="M 252.59939,32.246083 C 252.59939,32.246083 252.59939,32.246083 252.59939,32.246083 z"
       style="fill:#ffffff;fill-opacity:1;fill-rule:evenodd;stroke:#000000;stroke-width:1px;stroke-linecap:butt;stroke-linejoin:miter;stroke-opacity:1" />
    <path
       sodipodi:nodetypes="ccccccccc"
       id="path4681"
       d="M 223.79611,382.06199 C 228.38575,397.82826 234.80683,404.55787 242.53067,414.52552 C 254.26964,427.71922 263.71796,440.6181 263.31839,459.74389 C 265.77313,490.97814 259.59525,521.38858 263.23557,552.56591 C 271.91448,566.85197 243.70144,577.14463 249.65761,556.58382 C 249.90238,533.13339 250.19344,526.81827 248.46599,503.41777 C 248.22803,488.49055 251.3386,501.50449 247.46048,445.35096 C 236.46244,433.75909 228.56526,423.25 219.92941,405.50298 C 217.53218,398.2846 213.38016,391.95052 212.31341,384.40382"
       style="fill:#ffffff;fill-opacity:1;fill-rule:evenodd;stroke:#000000;stroke-width:1px;stroke-linecap:butt;stroke-linejoin:miter;stroke-opacity:1" />
    <path
       style="fill:#ffffff;fill-opacity:1;fill-rule:evenodd;stroke:#000000;stroke-width:1px;stroke-linecap:butt;stroke-linejoin:miter;stroke-opacity:1"
       d="M 129.84346,365.31161 C 129.16808,361.66357 135.50159,366.10236 130.226,368.03885 L 127.01171,371.96742 C 107.171,389.30771 119.47757,433.64414 128.23257,457.33714 C 136.75457,482.74113 131.57457,538.31214 137.00057,564.10214 C 152.66756,581.00214 155.40457,571.43214 149.73057,530.78314 C 147.38457,504.17711 143.25357,449.00914 133.21157,424.49914 C 130.53186,417.95957 130.36841,417.01202 131.80288,407.85212"
       id="path4811"
       sodipodi:nodetypes="ccccccsc" />
    <path
       sodipodi:type="arc"
       style="opacity:1;fill:#ffffff;fill-opacity:1;stroke:#000000;stroke-opacity:1"
       id="path4900"
       sodipodi:cx="252.11263"
       sodipodi:cy="52.768669"
       sodipodi:rx="6.0120468"
       sodipodi:ry="6.0120468"
       d="M 258.12467,52.768669 A 6.0120468,6.0120468 0 1 1 246.10058,52.768669 A 6.0120468,6.0120468 0 1 1 258.12467,52.768669 z"
       transform="translate(-2.6120388,-3.3263245)" />
    <path
       sodipodi:type="arc"
       style="opacity:1;fill:#ffffff;fill-opacity:1;stroke:#000000;stroke-opacity:1"
       id="path4902"
       sodipodi:cx="252.11263"
       sodipodi:cy="52.768669"
       sodipodi:rx="6.0120468"
       sodipodi:ry="6.0120468"
       d="M 258.12467,52.768669 A 6.0120468,6.0120468 0 1 1 246.10058,52.768669 A 6.0120468,6.0120468 0 1 1 258.12467,52.768669 z"
       transform="translate(11.537189,-0.271348)" />
    <path
       style="fill:none;fill-rule:evenodd;stroke:#000000;stroke-width:1px;stroke-linecap:butt;stroke-linejoin:miter;stroke-opacity:1"
       d="M 212.67653,98.415454 C 217.89205,100.66545 216.14988,99.923715 221.69289,99.542 C 230.56599,97.939678 238.1948,92.508201 244.50437,86.30066 C 246.45195,84.383084 248.37106,82.41347 249.94435,80.169192"
       id="path4906"
       sodipodi:nodetypes="ccsc" />
    <path
       style="fill:#ffffff;fill-opacity:1;fill-rule:evenodd;stroke:#000000;stroke-width:1px;stroke-linecap:butt;stroke-linejoin:miter;stroke-opacity:1"
       d="M 439.02802,424.59048 C 447.37819,442.758 453.06894,459.6636 451.78446,483.00363 C 451.23238,493.76946 452.02829,504.57254 453.67967,515.21461 C 453.29686,532.27295 456.14174,535.89962 452.03384,545.67408 C 449.62315,550.82264 440.19091,547.63824 443.03634,542.02884 C 442.59044,523.39516 441.48513,504.77955 441.17416,486.14407 C 440.12363,465.91849 439.0765,445.35795 432.32605,426.06891"
       id="path4927"
       sodipodi:nodetypes="ccccccc" />
    <path
       style="fill:#ffffff;fill-opacity:1;fill-rule:evenodd;stroke:#000000;stroke-width:1px;stroke-linecap:butt;stroke-linejoin:miter;stroke-opacity:1"
       d="M 341.94824,385.85556 C 336.70735,420.43761 347.32103,454.49875 353.7788,488.13734 C 357.20555,506.36303 359.89459,525.08559 357.87667,543.61921 C 356.54278,550.18024 354.51588,557.49991 357.47546,563.87791 C 362.50831,569.71026 369.21877,561.10908 370.62188,556.01494 C 373.41088,550.07259 370.21048,543.93605 370.27016,538.05221 C 371.89045,501.50739 359.17608,465.69016 362.91119,429.09527 C 363.96904,419.16176 366.47665,409.28373 371.22001,400.44274"
       id="path4921" />
    <path
       style="fill:#ffffff;fill-opacity:1;fill-rule:evenodd;stroke:#000000;stroke-width:1px;stroke-linecap:butt;stroke-linejoin:miter;stroke-opacity:1"
       d="M 462.48486,418.18393 C 472.46544,446.51496 475.59379,476.9387 473.64194,506.82004 C 473.61602,520.81152 473.93754,534.84193 472.54677,548.7858 C 476.72132,554.77592 485.32483,549.9147 484.72675,543.3917 C 486.71257,535.39082 484.18095,527.31083 484.53905,519.25722 C 484.36769,506.02216 484.66076,492.76768 485.98536,479.59553 C 486.65028,461.30872 483.20346,443.21608 482.10798,425.03777 C 482.29567,418.84987 481.28727,412.54067 478.54984,406.94785"
       id="path4925" />
    <path
       style="fill:#ffffff;fill-opacity:1;fill-rule:evenodd;stroke:#000000;stroke-width:1px;stroke-linecap:butt;stroke-linejoin:miter;stroke-opacity:1"
       d="M 380.82957,122.29991 C 375.71201,114.51867 369.89749,104.43985 377.83289,96.316865 C 387.27896,86.811278 393.95504,103.25321 393.87332,111.22566 C 394.71472,118.00699 394.31716,124.85651 394.72626,131.66332"
       id="path4937" />
    <path
       style="fill:#ffffff;fill-opacity:1;fill-rule:evenodd;stroke:#000000;stroke-width:1px;stroke-linecap:butt;stroke-linejoin:miter;stroke-opacity:1"
       d="M 470.9375 441.1875 C 470.36469 440.65303 469.82788 440.09716 469.15625 439.65625 C 466.52977 438.66422 463.80632 437.93945 461.0625 437.375 C 458.31868 436.81055 455.53551 436.39109 452.75 435.96875 C 449.96449 435.54641 447.18905 435.12821 444.4375 434.5625 C 441.68595 433.99679 438.98571 433.30706 436.34375 432.3125 C 434.30862 431.70415 432.36872 430.94143 430.53125 430.09375 C 428.69378 429.24607 426.95385 428.28573 425.3125 427.21875 C 423.67115 426.15177 422.13428 424.98499 420.6875 423.71875 C 419.24072 422.45251 417.87874 421.10172 416.625 419.65625 C 415.37126 418.21078 414.2185 416.66717 413.15625 415.0625 C 412.094 413.45783 411.12231 411.77508 410.25 410.03125 C 409.37769 408.28742 408.59015 406.48796 407.90625 404.625 C 407.22235 402.76204 406.65329 400.83706 406.15625 398.875 C 405.35507 396.86125 404.51366 394.84303 403.53125 392.75 C 402.54884 390.65697 401.41438 388.51196 399.9375 386.25 C 398.46062 383.98804 396.65958 381.61428 394.375 379.09375 C 392.09042 376.57322 389.31177 373.9 385.90625 371.03125 C 384.57768 370.10955 383.16854 369.31863 381.6875 368.65625 C 380.20646 367.99387 378.66691 367.44865 377.09375 367.03125 C 375.52059 366.61385 373.91744 366.31177 372.3125 366.125 C 370.70756 365.93823 369.10763 365.87673 367.53125 365.90625 C 365.95487 365.93577 364.39372 366.08104 362.90625 366.3125 C 361.41878 366.54396 359.99448 366.86218 358.65625 367.28125 C 357.31802 367.70032 356.06613 368.22017 354.9375 368.8125 C 353.80887 369.40483 352.7962 370.06126 351.9375 370.8125 C 350.35812 372.42741 348.94565 373.97326 347.6875 375.46875 C 346.42935 376.96424 345.32081 378.40246 344.34375 379.84375 C 343.36669 381.28504 342.51735 382.73519 341.78125 384.1875 C 341.09657 385.53837 340.54098 386.89763 340.03125 388.3125 C 340.19275 390.96634 340.60712 393.64476 341.625 396.34375 C 348.10573 421.63267 373.08858 439.49946 398.875 439.65625 C 418.48099 441.37635 438.62253 439.21967 457.71875 444.96875 C 462.68327 445.09202 467.12847 443.64362 470.9375 441.1875 z "
       id="path5192" />
    <path
       style="fill:#ffffff;fill-opacity:1;fill-rule:evenodd;stroke:#000000;stroke-width:1px;stroke-linecap:butt;stroke-linejoin:miter;stroke-opacity:1"
       d="M 394.08551,399.75281 C 400.69806,412.62308 402.19111,428.64166 403.19506,443.12662 C 405.79526,464.15013 406.81538,483.31869 406.71584,504.39848 C 407.3178,518.69894 405.14677,532.94588 405.40308,547.22159 C 404.99684,553.76493 403.48681,561.86525 408.96011,566.79819 C 414.85519,571.33942 423.50525,565.95171 422.25572,558.68729 C 422.37548,550.70391 420.65567,542.79234 421.28831,534.79482 C 421.18818,519.7552 419.53027,504.78223 418.56814,489.79667 C 418.95321,475.72021 422.33839,461.41955 418.61561,447.50555 C 416.68231,433.71323 415.1265,419.85435 414.48428,405.93668 L 414.97983,405.66653"
       id="path4923"
       sodipodi:nodetypes="ccccccccccc" />
    <path
       style="fill:#ffffff;fill-opacity:1;fill-rule:evenodd;stroke:#000000;stroke-width:1px;stroke-linecap:butt;stroke-linejoin:miter;stroke-opacity:1"
       d="M 374.1875 152.28125 C 367.38222 154.30245 368.2887 162.89768 367.375 168.4375 C 363.81998 201.20815 370.40718 233.89315 371.96875 266.5625 C 376.27984 296.66727 375.53038 330.43293 356.28125 355.625 C 347.11666 364.01123 339.26847 375.77804 340.03125 388.3125 C 340.54098 386.89763 341.09657 385.53837 341.78125 384.1875 C 342.51735 382.73519 343.36669 381.28504 344.34375 379.84375 C 345.32081 378.40246 346.42935 376.96424 347.6875 375.46875 C 348.94565 373.97326 350.35812 372.42741 351.9375 370.8125 C 352.7962 370.06126 353.80887 369.40483 354.9375 368.8125 C 356.06613 368.22017 357.31802 367.70032 358.65625 367.28125 C 359.99448 366.86218 361.41878 366.54396 362.90625 366.3125 C 364.39372 366.08104 365.95487 365.93577 367.53125 365.90625 C 369.10763 365.87673 370.70756 365.93823 372.3125 366.125 C 373.91744 366.31177 375.52059 366.61385 377.09375 367.03125 C 378.66691 367.44865 380.20646 367.99387 381.6875 368.65625 C 383.16854 369.31863 384.57768 370.10955 385.90625 371.03125 C 389.31177 373.9 392.09042 376.57322 394.375 379.09375 C 396.65958 381.61428 398.46062 383.98804 399.9375 386.25 C 401.41438 388.51196 402.54884 390.65697 403.53125 392.75 C 404.51366 394.84303 405.35507 396.86125 406.15625 398.875 C 406.65329 400.83706 407.22235 402.76204 407.90625 404.625 C 408.59015 406.48796 409.37769 408.28742 410.25 410.03125 C 411.12231 411.77508 412.094 413.45783 413.15625 415.0625 C 414.2185 416.66717 415.37126 418.21078 416.625 419.65625 C 417.87874 421.10172 419.24072 422.45251 420.6875 423.71875 C 422.13428 424.98499 423.67115 426.15177 425.3125 427.21875 C 426.95385 428.28573 428.69378 429.24607 430.53125 430.09375 C 432.36872 430.94143 434.30862 431.70415 436.34375 432.3125 C 438.98571 433.30706 441.68595 433.99679 444.4375 434.5625 C 447.18905 435.12821 449.96449 435.54641 452.75 435.96875 C 455.53551 436.39109 458.31868 436.81055 461.0625 437.375 C 463.80632 437.93945 466.52977 438.66422 469.15625 439.65625 C 469.82788 440.09716 470.36469 440.65303 470.9375 441.1875 C 481.91747 434.10744 487.46161 418.39073 483.75 405.75 C 483.64139 405.13863 483.55876 404.54141 483.46875 403.9375 C 488.05566 414.31356 489.12498 426.29092 489.28125 437.53125 C 488.39242 453.94308 492.97645 469.98343 493.0625 486.34375 C 493.13916 492.74453 491.76286 500.48866 496.65625 505.53125 C 500.93733 509.92934 503.61601 504.41231 502.53125 500.125 C 501.49559 491.22136 494.03306 482.8554 497.6875 473.65625 C 495.26747 456.59876 497.29042 439.35465 496.96875 422.21875 C 496.49277 412.30725 496.41436 401.94196 492.21875 392.75 C 488.18162 383.70027 480.07248 375.78054 470.40625 373.375 C 467.46472 371.36303 463.79928 369.45222 459.125 367.625 C 443.36915 360.35707 425.0107 357.59065 412.21875 344.9375 C 393.1913 330.07995 391.90787 303.9867 390.53125 281.84375 C 387.61183 251.33771 381.09523 221.0367 382.375 190.25 C 383.79735 173.74979 387.24346 159.01753 374.1875 152.28125 z "
       id="path4929" />
    <path
       style="fill:#ffffff;fill-rule:evenodd;stroke:#000000;stroke-width:1px;stroke-linecap:butt;stroke-linejoin:miter;stroke-opacity:1;fill-opacity:1"
       d="M 378.28125,118.40625 C 377.27165,118.37095 376.14546,118.43057 374.875,118.59375 C 369.0566,118.94599 363.37912,121.88787 360.5625,127.15625 C 357.38045,132.15352 357.07922,138.16415 356.84375,143.875 C 356.83103,171.68435 377.45943,170.30957 396.09375,168.8125 C 399.72701,168.29527 401.96897,167.78676 404.5,167.28125 C 404.34135,166.87438 404.11034,166.50018 403.96875,166.09375 C 403.34523,164.59171 402.55442,163.09306 401.9375,161.5625 C 401.62904,160.79722 401.37031,160.01512 401.1875,159.21875 C 401.00469,158.42238 400.88074,157.62469 400.90625,156.78125 C 402.46373,158.09895 403.94361,159.51826 405.4375,160.90625 C 407.14556,162.56048 409.0062,164.01307 410.96875,165.34375 C 411.11923,165.44578 411.2861,165.52424 411.4375,165.625 C 414.16855,164.73201 416.98704,163.63078 420.78125,161.875 C 427.36537,158.18268 433.72016,157.72123 439.625,152.90625 C 443.4792,150.05904 446.07383,150.99213 443.78125,146.34375 C 442.43787,141.9939 436.70261,138.94275 432.96875,142.46875 C 415.64107,142.61661 406.51461,139.45974 393.15625,129 C 386.79485,123.49406 385.34846,118.65335 378.28125,118.40625 z"
       id="path4931"
       sodipodi:nodetypes="cccccccssccsccccccc" />
    <path
       style="fill:#ffffff;fill-opacity:1;fill-rule:evenodd;stroke:#000000;stroke-width:1px;stroke-linecap:butt;stroke-linejoin:miter;stroke-opacity:1"
       d="M 369.44624,121.68401 C 365.68725,114.69105 357.79525,108.64395 362.53855,99.774151 C 368.38606,87.009791 380.04374,99.510847 379.15468,109.00757 C 380.2992,114.72381 380.61695,120.61547 379.99195,126.41499"
       id="path4935" />
    <path
       style="fill:#ffffff;fill-rule:evenodd;stroke:#000000;stroke-width:1px;stroke-linecap:butt;stroke-linejoin:miter;stroke-opacity:1;fill-opacity:1"
       d="M 376.93638,131.76232 C 376.1662,130.73537 372.30813,126.74818 371.02289,125.35578 C 369.94771,124.19095 369.23104,123.94396 367.77047,122.79316 C 366.39547,121.70978 365.64204,121.29068 364.41949,120.42767 C 363.50178,119.77984 361.0718,120.2167 359.88582,120.13198 C 357.91593,119.99127 356.6698,120.16272 354.85935,120.42767 C 352.74914,120.73649 350.92088,122.34751 349.04442,123.38453 C 346.91376,124.56205 345.07195,128.23802 343.42661,130.57957 C 342.04433,132.54675 341.70557,134.14628 341.15977,136.4933 C 340.69393,138.4965 341.03231,140.59361 341.15977,142.50559 C 341.28347,144.36107 341.92384,145.95985 342.44103,147.63082 C 342.93696,149.23312 344.66396,151.29983 345.59489,152.65749 C 347.10806,154.86429 349.52366,155.58371 351.60694,156.59998 C 353.71139,157.62658 356.47201,157.31657 358.80168,157.48704 C 362.89581,157.78662 364.28516,156.26588 367.17912,153.64312 C 367.99332,152.90522 368.18581,152.42066 368.55894,151.96756"
       id="path4933" />
    <path
       sodipodi:type="arc"
       style="opacity:1;fill:#ffffff;fill-opacity:1;stroke:#000000;stroke-opacity:1"
       id="path5006"
       sodipodi:cx="390.42395"
       sodipodi:cy="138.86536"
       sodipodi:rx="5.5558391"
       sodipodi:ry="5.5558391"
       d="M 395.97979,138.86536 A 5.5558391,5.5558391 0 1 1 384.86811,138.86536 A 5.5558391,5.5558391 0 1 1 395.97979,138.86536 z" />
    <path
       style="fill:#ffffff;fill-opacity:1;fill-rule:evenodd;stroke:#000000;stroke-width:1px;stroke-linecap:butt;stroke-linejoin:miter;stroke-opacity:1"
       d="M 20.295927,216.25856 C 14.809695,218.43855 7.5964965,220.8518 2.6029356,216.32442 C 0.97156753,211.89304 4.5258455,203.82795 -3.1582855,204.32368 C -9.683516,201.4162 -11.195818,192.61996 -6.3581646,187.75886 C -7.1645825,182.71394 -14.246231,182.66845 -15.397589,177.70191 C -17.530401,172.69154 -15.888425,166.11154 -10.870147,163.5094 C -7.0946417,159.5487 -11.784889,153.46588 -8.1501755,149.1386 C -6.2696324,143.82438 -0.68303779,142.19064 3.5552582,140.65393 C 2.9995639,135.19264 4.0899066,129.37222 9.1285633,126.11463 C 13.161796,121.83246 17.642033,124.38079 22.286683,125.05667 C 26.857477,123.73711 26.789168,116.56611 32.919073,117.2473 C 37.742767,116.43167 41.742505,119.69254 42.475433,124.13048 C 46.193615,125.7752 50.044396,120.78038 54.426441,123.26031 C 60.464365,124.19714 61.365595,129.72309 61.508579,134.57466 C 63.492337,139.39323 71.095191,139.39482 68.542573,145.98083 C 66.882274,150.99228 71.054977,153.125 74.323656,155.28021 C 76.073474,160.08383 71.309134,166.08389 77.09167,169.62192 C 80.629196,174.56957 74.562613,179.53792 77.019372,184.49312 C 78.419832,188.54601 80.956159,193.7035 77.432635,197.39519 C 72.899697,201.37539 70.250615,206.75611 68.331712,211.95125 L 67.406723,212.11894"
       id="path5552" />
    <path
       style="fill:#ffffff;fill-opacity:1;fill-rule:evenodd;stroke:#000000;stroke-width:1px;stroke-linecap:butt;stroke-linejoin:miter;stroke-opacity:1"
       d="M 88.25 21.4375 C 88.068053 21.428728 87.881359 21.447937 87.6875 21.46875 C 83.62479 23.690206 82.3409 29.226037 79.1875 32.59375 C 61.410222 58.519451 50.453317 88.180996 42.3125 118.375 C 38.368465 131.18502 35.171881 144.20298 32.625 157.34375 C 30.153473 131.72492 27.873186 105.82032 18.5625 81.625 C 13.568124 66.831916 7.5475027 52.309309 -0.40625 38.84375 C -1.405871 36.183252 -1.788735 32.023098 -5.375 31.6875 C -11.364056 36.080741 -9.381915 44.712928 -5.90625 50.0625 C 10.834644 74.502807 16.365251 104.30574 21.46875 132.9375 C 23.296733 148.41341 23.478823 164.03069 25.375 179.5 C 26.169241 183.6571 26.897445 187.09782 27.6875 189.46875 C 26.689351 198.04834 25.914283 206.65777 25.375 215.28125 C 21.433517 257.50259 18.617734 300.33996 24.59375 342.46875 C 24.738115 342.53739 24.882769 342.5992 25.03125 342.65625 C 20.433581 416.58193 18.301875 484.80058 26.625 566 C 32.08463 568.9915 40.502881 564.44202 38.65625 557.8125 C 31.711499 491.67038 30.507213 423.73909 35.96875 356.4375 C 41.497693 326.4731 53.355813 298.33646 70.5 274.1875 C 72.564639 273.16761 74.427329 271.0169 75.3125 269.09375 C 86.937175 253.81657 107.43481 248.63488 125.6875 246.8125 C 134.20851 245.62171 142.56166 247.60278 150.78125 248.625 C 153.28282 248.37665 155.84943 248.30351 157.4375 250.59375 C 161.93371 248.77892 163.58598 241.38623 157.90625 240.125 C 149.18546 240.01221 140.71343 237.21668 131.9375 237.4375 C 120.54529 237.86979 108.58388 239.56852 97.59375 243.4375 C 99.318177 241.8558 101.06017 240.29916 102.84375 238.78125 C 130.41579 214.10663 162.51224 193.90411 197.5 181.6875 C 194.92071 179.43727 196.29843 173.29663 191.46875 174.15625 C 143.34653 192.3289 99.880936 223.36482 67.21875 263.03125 C 56.706158 276.41013 47.912151 291.23629 41.21875 306.9375 C 41.799619 302.531 42.389878 298.11368 43.03125 293.71875 C 56.377666 224.32794 96.232946 160.85308 150 115.875 C 156.35641 113.36449 156.14847 101.67675 148.375 101.75 C 147.92499 101.84369 147.40425 101.58373 147 101.90625 C 137.93521 106.4529 132.05641 115.26744 124.21875 121.53125 C 76.738453 167.25487 42.24567 227.56348 30.15625 292.53125 C 29.805681 253.73373 34.393775 214.8458 38.53125 176.3125 C 41.246054 171.08126 42.141562 164.61323 45.4375 159.65625 C 61.663061 132.87069 82.659438 109.01615 108.21875 90.59375 C 112.43962 87.45949 116.75374 84.630281 121.15625 81.8125 C 118.24418 80.299009 118.3415 75.216406 114.46875 75.53125 C 86.844209 93.148338 62.72092 116.6225 44.75 144.1875 C 50.553349 119.6698 58.168096 95.568273 67.46875 72.1875 C 74.977495 55.309225 84.812544 39.906481 95.40625 24.8125 C 92.459708 24.830373 90.979205 21.569078 88.25 21.4375 z "
       id="path5194" />
    <path
       style="fill:#ffffff;fill-opacity:1;fill-rule:evenodd;stroke:#000000;stroke-width:1px;stroke-linecap:butt;stroke-linejoin:miter;stroke-opacity:1"
       d="M 510.53125,175.34375 C 510.257,175.38548 509.92676,175.51074 509.5625,175.75 C 505.13323,175.63036 502.24855,179.93817 504.1875,183.9375 C 505.70383,190.51323 505.90732,197.54385 509.78125,203.4375 C 511.80553,207.52238 514.70044,210.84953 518.0625,213.65625 C 507.04339,211.37926 495.73539,210.40098 484.4375,210.84375 C 472.30001,211.97474 460.50081,215.5373 449.5625,220.78125 C 449.12722,225.1702 453.32542,229.58185 457.625,227.09375 C 514.7579,207.87855 575.96824,234.05201 601.40625,287.90625 C 606.103,298.69885 609.55905,309.9329 613.34375,321.09375 C 617.88522,321.91589 622.51285,317.81617 620.375,313.21875 C 612.48117,289.7617 603.72637,264.8238 585.25,247.5625 C 566.70248,234.02567 547.03244,220.19556 526.90625,208.9375 C 516.89435,203.12376 513.79552,191.4888 512.96875,180.71875 C 512.34521,179.10756 512.45101,175.05163 510.53125,175.34375 z"
       id="path5217"
       sodipodi:nodetypes="ccccccccccccccc" />
    <path
       style="fill:#ffffff;fill-opacity:1;fill-rule:evenodd;stroke:#000000;stroke-width:1px;stroke-linecap:butt;stroke-linejoin:miter;stroke-opacity:1"
       d="M 569.4375 84.625 C 564.85929 85.826643 567.65158 92.074252 566.3125 95.34375 C 562.46711 116.36881 558.61777 138.61335 565.53125 159.4375 C 546.21088 144.19766 523.68771 133.03345 499.5625 127.9375 C 498.30244 127.74707 497.0318 127.35563 495.75 127.53125 C 490.94587 127.98066 491.59068 137.03616 496.59375 136.84375 C 506.35738 136.76614 515.32745 142.01789 524.34375 145.25 C 559.61691 160.62248 589.63799 188.66771 605.53125 223.90625 C 620.12156 252.15082 631.57074 282.67467 632.28125 314.78125 C 636.80385 339.87515 634.21976 365.69673 630.75 390.75 C 634.4875 393.45016 640.43936 391.8445 640.53125 386.71875 C 643.82374 361.3017 645.38521 335.20701 640.84375 309.8125 C 639.12208 268.06972 620.17256 229.43268 599.03125 194.1875 C 594.74173 188.33432 590.05631 182.75501 585.0625 177.4375 C 584.91416 176.27574 584.38241 175.12553 583.34375 174.15625 C 567.55358 154.3494 569.18853 126.73464 574.3125 103.3125 C 575.54799 97.268928 575.14318 91.077033 576.6875 85.09375 C 573.97263 86.530142 572.03877 84.443692 569.4375 84.625 z "
       id="path5219" />
    <path
       style="fill:#ffffff;fill-opacity:1;fill-rule:evenodd;stroke:#000000;stroke-width:1px;stroke-linecap:butt;stroke-linejoin:miter;stroke-opacity:1"
       d="M 120.62812,206.59946 C 116.01375,202.86628 110.82549,197.85064 111.60663,191.35856 C 110.12306,184.71581 117.20515,179.45939 123.292,179.61958 C 121.59522,174.21858 118.4479,164.42425 126.85731,163.26472 C 133.53719,162.62425 134.27914,155.70725 138.6769,152.58126 C 143.04277,149.53606 149.13578,147.86389 154.04511,150.64238 C 155.90732,146.10031 158.64155,141.33768 163.80237,140.12545 C 169.68728,137.79936 177.68234,137.33768 182.0651,142.73723 C 182.54927,146.62229 184.44429,153.17548 189.29062,148.48745 C 195.42159,145.535 203.86759,151.53026 200.40104,158.2856 C 199.37434,164.26264 205.74979,164.2003 209.09053,166.20566 C 212.73034,171.87136 204.25173,178.73478 210.08889,183.79468 C 215.3341,187.73041 215.74072,195.38233 210.88744,199.77863 C 209.0756,202.19233 204.24573,202.63544 207.8468,205.56716 C 210.65684,209.68652 208.61499,216.46471 203.46087,217.40648 C 195.58044,217.36983 196.55237,225.6718 194.49305,230.88488 C 190.22004,235.47681 182.31797,230.34834 178.01565,235.44033 C 175.79628,242.99216 167.38871,240.52551 161.72288,239.35868 C 156.09582,240.47436 148.00242,243.16687 144.63666,236.46413 C 139.8161,233.13535 132.92978,243.02419 129.63069,235.05167 C 128.84069,233.5669 128.63568,231.77438 129.10412,230.15582"
       id="path5231" />
    <path
       style="fill:#ffffff;fill-opacity:1;fill-rule:evenodd;stroke:#000000;stroke-width:1px;stroke-linecap:butt;stroke-linejoin:miter;stroke-opacity:1"
       d="M 114.81319,239.22354 C 113.8202,235.03525 109.79969,230.87443 112.17432,226.4433 C 115.00834,221.239 120.4916,216.40301 126.80596,217.31891 C 131.21774,220.28057 135.95941,216.42229 136.02883,211.99033 C 139.69824,208.37531 145.12583,210.46971 149.63336,209.74653 C 153.68363,209.08917 154.55536,213.67806 155.26429,216.12355 C 159.83539,217.9937 163.19724,211.42639 168.00557,213.18296 C 172.30482,213.939 175.9866,217.77948 176.16078,222.20697 C 177.68299,226.36944 172.34206,229.2153 173.11957,233.25179 C 175.55625,235.57297 181.33987,234.39018 182.39448,238.93673 C 183.29777,243.04624 177.07338,245.84826 179.45923,249.97214 C 183.73015,251.97781 181.47914,257.62855 178.69435,260.0877 C 175.73942,263.38252 171.15146,264.80373 166.82596,264.19158 C 171.86279,265.79622 171.17866,273.6409 166.7066,275.54788 C 162.58057,278.27508 156.26978,277.76224 153.20266,273.6724 C 156.38907,277.60366 154.56802,284.62783 149.37178,285.71487 C 145.07448,287.21265 140.39206,286.02986 136.39933,284.18877 C 132.0434,285.0948 128.48361,289.73386 123.7131,288.07657 C 117.74533,288.29624 121.48059,278.8489 116.08272,278.93671 C 110.7174,279.84925 108.8234,273.86888 110.04016,269.65971 C 110.49418,266.42862 112.29879,263.26357 115.30598,261.79427"
       id="path5233" />
    <path
       style="fill:#ffffff;fill-rule:evenodd;stroke:#000000;stroke-width:1px;stroke-linecap:butt;stroke-linejoin:miter;stroke-opacity:1;fill-opacity:1"
       d="M 479.28122,206.10664 C 482.25387,202.44668 478.37382,198.3338 476.06291,195.52016 C 472.50745,191.35821 464.86313,191.4974 462.19688,196.59688 C 460.65829,200.31095 457.83607,198.57196 455.55391,197.0525 C 451.29004,195.96675 446.68566,197.43763 443.06915,199.70591 C 439.05361,202.09241 438.74447,206.79696 440.15213,210.60849 C 437.61597,212.73563 433.87662,209.45945 431.00065,211.81283 C 426.25866,213.858 422.25036,219.25875 423.61527,224.55362 C 424.55708,228.17925 433.08808,227.27551 429.19452,231.66895 C 426.43832,234.25008 423.09221,240.17972 428.28132,242.12576 C 431.14067,243.88178 435.57872,241.39015 437.71865,243.47678 C 435.68381,245.56759 435.45341,248.91995 436.88676,251.44418 C 439.28987,256.26589 445.42232,258.8632 450.46877,256.70639 C 453.70242,255.17854 456.67617,252.22941 460.59848,253.50644 C 464.93245,254.56467 469.71838,257.02792 474.08732,254.71735 C 477.40137,254.62204 477.75644,250.73872 478.56594,248.31019 C 479.77606,244.41913 484.07833,247.74047 486.85352,246.58657 C 490.92006,246.1481 494.5135,242.4466 493.84828,238.19229 C 494.58077,234.45793 487.11928,229.97617 492.98053,228.24687 C 497.015,227.7983 497.51866,223.3748 494.55772,221.28523"
       id="path5235" />
    <path
       style="fill:#ffffff;fill-rule:evenodd;stroke:#000000;stroke-width:1px;stroke-linecap:butt;stroke-linejoin:miter;stroke-opacity:1;fill-opacity:1"
       d="M 541.37286,140.46426 C 542.9955,136.09605 547.96256,132.62048 546.54499,127.45467 C 545.71709,122.18963 539.06517,118.74358 534.35759,121.38584 C 535.06792,123.57544 538.47179,118.52174 538.66042,116.98561 C 539.9591,112.98828 540.96219,107.57646 537.54209,104.36163 C 535.24498,101.56068 529.76096,102.41714 528.03529,102.33888 C 530.03176,97.769531 525.56406,92.581527 520.84914,92.834854 C 514.51509,91.4919 507.21748,96.638849 507.72662,103.42683 C 508.08156,108.53778 505.20373,101.46749 502.51723,102.21398 C 497.51305,101.44248 492.29362,104.3541 489.59987,108.4745 C 487.89077,110.69879 489.88382,115.05721 490.04972,115.93424 C 484.81433,114.09338 480.15968,118.47454 477.35417,122.37481 C 473.35368,126.82698 480.16484,132.36289 476.16155,136.30407 C 473.5859,138.84247 471.38112,142.82173 474.10399,146.07553 C 476.71784,149.89024 481.78857,149.95066 485.82628,151.07866 C 484.26369,155.28736 483.21553,161.29776 488.69397,163.01909 C 492.87923,166.5253 498.67053,162.09408 502.43945,164.89049 C 503.67061,169.19359 506.58503,172.85826 511.55737,171.79931 C 517.27345,172.7432 520.24017,163.76548 525.64869,167.62146 C 529.90309,171.00324 535.40009,168.80797 540.15934,167.94544 C 545.68097,166.36403 546.76546,158.49892 541.76709,155.64284"
       id="path5239" />
    <path
       style="fill:#ffffff;fill-opacity:1;fill-rule:evenodd;stroke:#000000;stroke-width:1px;stroke-linecap:butt;stroke-linejoin:miter;stroke-opacity:1"
       d="M 563.79444,139.08308 C 558.93602,137.57815 553.6958,142.23145 549.15787,138.94651 C 546.38872,135.91672 546.2288,128.71631 540.67129,129.66998 C 537.71013,129.52344 535.37439,126.54617 534.34339,123.89484 C 532.48955,120.40491 536.18906,116.51227 533.21561,113.40405 C 529.84213,110.4456 526.62531,104.64924 531.14602,101.17622 C 533.29717,99.341761 536.79357,99.136894 534.11177,96.112207 C 532.74111,90.857191 537.98154,84.737367 543.47761,86.344224 C 548.73202,85.505572 542.5812,77.454712 548.08299,75.550588 C 551.32506,72.345986 557.10782,72.219076 560.2435,75.634377 C 564.50962,73.269606 567.33199,68.290272 572.78393,68.264322 C 577.28828,67.640897 584.44877,68.017645 583.66576,73.841559 C 586.78498,79.436007 592.22924,73.683495 596.34881,75.815205 C 600.19922,77.390254 603.29064,81.74703 602.01104,85.982678 C 597.95197,87.301212 599.27146,94.524939 603.84751,92.519405 C 608.61148,93.811546 610.43043,101.55889 605.61408,103.95181 C 600.5589,106.84362 605.16036,112.4032 608.76621,113.82712 C 612.14349,118.54582 609.06597,123.95859 605.18771,126.95959 C 603.14125,131.05058 606.70181,136.52913 603.04607,140.00157 C 598.91478,142.89301 593.34962,143.87723 590.33762,148.23263 C 588.04015,149.90478 584.38516,150.02909 582.42188,147.75653"
       id="path5241" />
    <path
       style="fill:#ffffff;fill-opacity:1;fill-rule:evenodd;stroke:#000000;stroke-width:1px;stroke-linecap:butt;stroke-linejoin:miter;stroke-opacity:1"
       d="M 34.760225,77.950447 C 28.185002,77.917311 22.283763,72.321551 21.903832,65.757161 C 20.621717,60.370855 25.003859,54.362267 30.596892,54.194291 C 24.981052,51.427287 24.447476,44.081122 26.858124,38.965943 C 28.350122,33.728018 30.892724,27.99988 36.240931,25.754029 C 40.910116,26.465336 46.918432,27.124509 47.226295,20.804631 C 50.658245,14.750295 56.548449,9.6987002 63.585534,8.6529315 C 68.16126,8.9351091 73.11723,14.799643 77.284712,10.527673 C 79.797252,7.4592065 84.337945,7.1042496 88.067467,6.6397348 C 92.415317,6.3470054 97.703067,5.7813643 100.63673,9.7738491 C 103.66334,13.3618 103.93414,18.435262 102.58773,22.757124 C 101.33516,28.410223 107.28592,26.433275 110.40411,26.622516 C 114.72643,29.706768 113.76817,36.641464 110.79991,40.394133 C 109.63734,43.370737 100.05181,45.607793 106.4384,47.969418 C 112.09063,49.006024 112.88531,57.04632 108.75604,60.388575 C 107.23658,63.25031 98.050997,63.43959 103.1271,67.356631 C 105.77256,69.979916 104.11956,74.629096 101.84614,77.066368 C 99.634037,80.527634 94.859167,79.900914 92.340797,82.56604 C 90.866637,86.457056 95.165887,91.470186 89.310097,93.342874 C 84.29508,95.25071 79.263248,97.244597 73.918802,98.035484 C 73.185418,98.172548 72.451883,98.30887 71.71953,98.451377"
       id="path5227" />
    <path
       style="fill:#ffffff;fill-rule:evenodd;stroke:#000000;stroke-width:1px;stroke-linecap:butt;stroke-linejoin:miter;stroke-opacity:1;fill-opacity:1"
       d="M 8.4689512,108.53012 C 4.7748404,112.1967 -4.0935752,114.53841 -6.3627001,108.34453 C -7.466634,102.74594 -12.522662,102.74443 -16.909112,103.16379 C -21.821375,101.08384 -23.246464,94.58286 -21.978086,89.832623 C -26.903535,90.235638 -33.853078,88.429424 -32.809496,82.056809 C -31.212978,77.946009 -31.49865,73.77303 -35.289103,71.128092 C -38.272231,66.478049 -36.714232,56.614708 -30.16362,56.797108 C -33.513755,57.84258 -36.672224,53.308287 -36.733426,50.006099 C -37.24913,46.026891 -34.303507,42.836491 -30.943028,41.302165 C -26.155725,37.163602 -28.768288,28.564993 -22.68761,25.482555 C -17.380881,24.070128 -11.067946,23.530842 -9.0243395,17.526788 C -5.4767411,13.796558 0.63012732,8.1962718 5.9098094,11.439524 C 8.5980097,14.499414 9.9998523,22.259892 15.55363,19.500527 C 21.424983,17.604872 27.031203,23.140968 27.846045,28.686117 C 29.503099,33.403648 35.345017,31.939753 39.055709,33.488868 C 44.590571,35.91094 40.772499,43.688502 45.134288,47.246388 C 49.61676,48.481799 55.724607,51.102008 53.692599,57.230504 C 51.945618,61.371898 46.07709,63.972019 49.077102,69.384205 C 51.625293,73.817817 51.519922,78.275457 47.503639,81.702468 C 42.515011,86.76349 52.354216,90.373972 47.749673,95.340054 C 45.41113,98.694947 40.893543,101.63464 41.902601,106.31377 C 41.361438,109.56725 37.964646,111.70702 34.783978,111.1913"
       id="path5243" />
    <path
       style="fill:#ffffff;fill-opacity:1;fill-rule:evenodd;stroke:#000000;stroke-width:1px;stroke-linecap:butt;stroke-linejoin:miter;stroke-opacity:1"
       d="M 88.103935,87.709851 C 82.266448,88.13559 79.066462,81.351998 79.791218,76.303991 C 79.309487,70.693465 82.509805,65.532474 86.251984,61.638204 C 86.118606,55.878777 87.004497,49.905346 91.205896,45.690078 C 94.404257,42.198366 101.70861,43.672212 102.99342,38.26163 C 104.03261,31.08495 110.10562,24.348738 117.63074,24.166161 C 122.66294,26.061678 128.81158,27.734467 133.69238,24.546454 C 139.93772,24.251733 141.06464,32.126596 146.05865,34.186865 C 149.94894,36.179961 155.26834,38.899182 154.64686,44.08928 C 153.13695,50.521107 161.06956,52.535085 163.39494,57.288817 C 165.27272,62.952854 157.79047,67.14683 160.08613,72.806238 C 161.99516,77.08699 164.23149,83.699512 158.54431,86.232533 C 152.37755,88.272485 154.22964,94.538167 153.01658,99.274157 C 150.52381,104.44172 144.06043,105.21354 139.08567,106.53036 C 133.22312,107.96507 132.41322,117.6532 125.62944,116.73364 C 120.55982,115.10734 115.43844,115.85395 110.39355,116.48957 C 105.42871,114.08434 102.84548,108.48979 97.934554,105.81573 C 94.73326,102.23909 96.238755,97.388497 95.002998,93.229337"
       id="path5525" />
    <path
       style="fill:#ffffff;fill-opacity:1;fill-rule:evenodd;stroke:#000000;stroke-width:1px;stroke-linecap:butt;stroke-linejoin:miter;stroke-opacity:1"
       d="M 103.97179,139.67577 C 98.191003,142.08013 92.173605,134.06087 95.741597,129.06721 C 101.3579,125.91452 94.696984,120.20934 95.722224,115.7543 C 97.977711,112.51168 99.547113,108.71274 99.31841,104.64884 C 99.460042,100.79877 98.618182,95.919271 102.51338,93.571489 C 106.40666,90.847783 112.08535,89.708429 113.67089,84.596564 C 115.72312,80.486593 118.46132,74.787175 123.90359,75.262724 C 128.66888,76.387267 133.43919,81.918295 138.45323,78.155656 C 142.9138,75.482313 148.19004,72.41894 153.49919,74.282781 C 157.29799,77.102022 155.22696,87.660663 162.21547,83.034114 C 165.9686,81.395046 171.79773,80.041481 173.9655,84.690029 C 174.18521,90.095836 175.71514,96.434343 181.56831,97.867575 C 184.89095,102.33675 180.40503,107.79186 182.34791,112.62629 C 183.94164,117.36396 182.51211,122.15585 182.11437,126.9263 C 183.18904,132.78124 182.21824,138.21374 177.81327,142.59479 C 175.5695,147.14595 177.75191,154.00978 171.31754,155.98306 C 166.33465,158.14071 162.21814,161.98503 159.51808,166.67727 C 155.54466,170.65515 150.02083,166.89035 145.3347,167.35223 C 140.99644,169.05882 135.24717,176.38749 131.05478,169.925 C 128.29837,166.42703 121.40197,170.72277 118.7139,166.15536 C 112.98937,168.65958 108.5507,161.95688 110.72877,156.8651 C 110.9051,155.41667 111.05433,153.93522 110.77231,152.48884"
       id="path5590" />
    <path
       style="fill:#ffffff;fill-rule:evenodd;stroke:#000000;stroke-width:1px;stroke-linecap:butt;stroke-linejoin:miter;stroke-opacity:1;fill-opacity:1"
       d="M 505.99048,193.09645 C 502.20998,191.4831 499.26136,195.83299 495.50336,195.46627 C 490.75174,195.96064 485.23475,193.14356 484.09489,188.26908 C 483.37924,186.04429 486.61193,183.93615 487.26416,183.8738 C 483.58432,183.24583 479.53415,182.01546 477.50997,178.5997 C 475.16679,176.10999 472.6137,172.23782 475.20552,169.01054 C 476.61373,166.56352 481.3983,167.43579 482.23161,166.35681 C 479.63811,163.78132 479.19044,160.05674 480.9963,156.89394 C 481.73689,153.94948 484.78335,150.2012 488.07048,151.62035 C 490.57472,153.90772 488.10981,149.7883 489.96642,148.70765 C 492.28808,146.43245 494.50365,143.81235 497.41813,142.28756 C 500.09426,141.05879 504.10516,141.11507 505.78334,143.85679 C 505.73708,145.74855 506.62959,148.74071 508.39188,145.81072 C 511.85653,142.53088 516.9721,143.64854 521.28241,143.55474 C 525.44834,143.33623 527.30048,147.34335 527.41421,150.91362 C 528.44579,154.76946 525.40398,157.79994 521.80061,158.28411 C 518.72911,159.53271 521.83578,160.76729 523.6095,160.0799 C 527.94314,159.83026 532.99305,159.01556 536.58203,162.07164 C 539.40795,165.27182 537.2783,170.26071 534.40916,172.6562 C 531.37449,173.65153 527.79262,178.04258 532.78502,178.75234 C 535.35494,179.96287 537.38408,182.92843 536.24411,185.7865 C 535.29911,190.21188 531.36499,193.79745 526.81339,194.10901 C 524.78073,194.46346 522.7161,194.57349 520.67563,194.87057"
       id="path5237" />
    <path
       style="fill:#ffffff;fill-opacity:1;fill-rule:evenodd;stroke:#000000;stroke-width:1px;stroke-linecap:butt;stroke-linejoin:miter;stroke-opacity:1"
       d="M 22.366198,263.93942 C 17.30805,266.44354 10.507329,267.18398 5.9451673,263.26323 C 7.5145567,257.4893 1.6884213,253.17284 -3.1870787,251.72389 C -8.3120002,248.79167 -7.3167375,241.58701 -4.9271404,237.17195 C -9.9246675,231.87779 -8.6843917,224.01559 -7.7030481,217.47511 C -6.1627722,212.34472 3.7228937,211.6424 0.83158365,204.9087 C -0.32665064,198.96688 3.562385,191.51084 9.9633849,190.9377 C 15.229042,191.53303 21.508137,190.56573 24.584537,185.76427 C 28.920268,181.52625 35.519592,182.01647 41.053457,182.78462 C 44.061615,186.95912 48.950637,192.33156 54.508098,189.09236 C 59.258544,188.89342 64.079716,194.44234 61.789279,199.06156 C 58.721498,203.26036 62.49134,207.06791 67.002926,205.89533 C 73.294002,206.20416 76.716714,213.09787 73.540721,218.33865 C 71.617331,224.10521 79.3783,227.06256 77.723196,232.60763 C 76.696817,237.04181 71.563683,239.93703 72.362721,244.80443 C 72.73063,248.91499 74.72979,254.15446 70.976282,257.32248 C 66.70282,258.19679 64.116096,261.80285 63.051983,265.96703 C 61.843589,270.3842 57.059609,270.8631 53.270707,271.55011 C 48.033481,271.49294 45.697344,277.36455 40.866577,277.38646 C 35.162759,276.94579 32.552173,271.45255 28.772476,268.07903"
       id="path5609" />
  </g>
</svg>
